<?xml version="1.0" standalone="no"?><!DOCTYPE svg PUBLIC "-//W3C//DTD SVG 1.1//EN" "http://www.w3.org/Graphics/SVG/1.1/DTD/svg11.dtd"><svg t="1594348189340" class="icon" viewBox="0 0 1024 1024" version="1.1" xmlns="http://www.w3.org/2000/svg" p-id="2818" xmlns:xlink="http://www.w3.org/1999/xlink" width="200" height="200"><defs><style type="text/css"></style></defs><path d="M856.1 856.1H483.5l277-277c10.1-10.1 10.1-26.6 0-36.7-10.1-10.1-26.6-10.1-36.7 0L410 856.1H219.9V116c0-28.7-23.3-52-52-52s-52 23.3-52 52v792c0 28.7 23.3 52 52 52h688.2c28.7 0 52-23.3 52-52-0.1-28.7-23.3-51.9-52-51.9z m-551.5-7.9c10 0 19.9-3.8 27.6-11.4l538.5-538.6c15.2-15.2 15.2-39.9 0-55.1-15.2-15.2-39.9-15.2-55.1 0L277 781.7c-15.2 15.2-15.2 39.9 0 55.1 7.7 7.6 17.6 11.4 27.6 11.4z m38.7-256.4c6.6 0 13.3-2.5 18.4-7.6l255.6-255.7c10.1-10.1 10.1-26.6 0-36.7-10.1-10.1-26.6-10.1-36.7 0L324.9 547.5c-10.1 10.1-10.1 26.6 0 36.7 5.1 5.1 11.8 7.6 18.4 7.6z m318.2-339.1c6.6 0 13.3-2.5 18.4-7.6l28.6-28.6c10.1-10.1 10.1-26.6 0-36.7-10.1-10.1-26.6-10.1-36.7 0l-28.6 28.6c-10.1 10.1-10.1 26.6 0 36.7 5 5.1 11.6 7.6 18.3 7.6z m37 471.3l-66.9 66.9c-10.1 10.1-10.1 26.6 0 36.7 5.1 5.1 11.7 7.6 18.4 7.6 6.6 0 13.3-2.5 18.4-7.6l66.9-66.9c10.1-10.1 10.1-26.6 0-36.7-10.2-10.2-26.7-10.2-36.8 0z" p-id="2819" fill="#ffffff"></path></svg>